<svg xmlns="http://www.w3.org/2000/svg" width="1600" height="1000" viewBox="0 0 1600 1000">
<defs>
<linearGradient id="sky" x1="0" y1="0" x2="0" y2="1"><stop offset="0" stop-color="hsl(0 0% 74%)"/><stop offset="1" stop-color="hsl(0 0% 39%)"/></linearGradient>
<filter id="grain"><feTurbulence type="fractalNoise" baseFrequency=".9" numOctaves="2" seed="6"/><feColorMatrix values="0 0 0 0 .5  0 0 0 0 .5  0 0 0 0 .5  0 0 0 .35 0"/></filter>
</defs>
<rect width="1600" height="1000" fill="url(#sky)"/>
<rect x="-40" y="226.79254796672262" width="195.12605394475443" height="1306.8729756431994" fill="hsl(0 0% 25%)"/><rect x="-24" y="256.7925479667226" width="18" height="26" fill="hsl(0 0% 59.40470613045837%)"/><rect x="90" y="256.7925479667226" width="18" height="26" fill="hsl(0 0% 68.54869299500655%)"/><rect x="-24" y="302.7925479667226" width="18" height="26" fill="hsl(0 0% 62.38902849722143%)"/><rect x="52" y="302.7925479667226" width="18" height="26" fill="hsl(0 0% 65.41542925658423%)"/><rect x="90" y="302.7925479667226" width="18" height="26" fill="hsl(0 0% 67.69551512677944%)"/><rect x="-24" y="348.7925479667226" width="18" height="26" fill="hsl(0 0% 51.62029162124744%)"/><rect x="14" y="348.7925479667226" width="18" height="26" fill="hsl(0 0% 69.16448494380549%)"/><rect x="52" y="348.7925479667226" width="18" height="26" fill="hsl(0 0% 66.45820630549369%)"/><rect x="90" y="348.7925479667226" width="18" height="26" fill="hsl(0 0% 54.237702053150954%)"/><rect x="14" y="440.7925479667226" width="18" height="26" fill="hsl(0 0% 60.63359841268212%)"/><rect x="52" y="440.7925479667226" width="18" height="26" fill="hsl(0 0% 69.38838527509401%)"/><rect x="-24" y="486.7925479667226" width="18" height="26" fill="hsl(0 0% 51.98343335743222%)"/><rect x="14" y="486.7925479667226" width="18" height="26" fill="hsl(0 0% 61.51557256072554%)"/><rect x="179.57318241222444" y="306.0487242536846" width="111.17978696766299" height="1227.6167993562374" fill="hsl(0 0% 28%)"/><rect x="195.57318241222444" y="336.0487242536846" width="18" height="26" fill="hsl(0 0% 61.32642892763318%)"/><rect x="233.57318241222444" y="382.0487242536846" width="18" height="26" fill="hsl(0 0% 59.06004137828017%)"/><rect x="195.57318241222444" y="428.0487242536846" width="18" height="26" fill="hsl(0 0% 70.27999341547489%)"/><rect x="233.57318241222444" y="474.0487242536846" width="18" height="26" fill="hsl(0 0% 57.853750581319325%)"/><rect x="316.2319997307993" y="-194.89046199009306" width="134.46279036088976" height="1728.555985600015" fill="hsl(0 0% 53%)"/><rect x="370.2319997307993" y="-164.89046199009306" width="18" height="26" fill="hsl(0 0% 78.41926396098884%)"/><rect x="332.2319997307993" y="-118.89046199009306" width="18" height="26" fill="hsl(0 0% 94.90482560401075%)"/><rect x="370.2319997307993" y="-118.89046199009306" width="18" height="26" fill="hsl(0 0% 79.7945142098677%)"/><rect x="332.2319997307993" y="-72.89046199009306" width="18" height="26" fill="hsl(0 0% 91.64135182166535%)"/><rect x="370.2319997307993" y="-72.89046199009306" width="18" height="26" fill="hsl(0 0% 90.52152341069724%)"/><rect x="408.2319997307993" y="-72.89046199009306" width="18" height="26" fill="hsl(0 0% 81.29603374157847%)"/><rect x="332.2319997307993" y="-26.89046199009306" width="18" height="26" fill="hsl(0 0% 89.86478150629661%)"/><rect x="370.2319997307993" y="-26.89046199009306" width="18" height="26" fill="hsl(0 0% 88.32173030559053%)"/><rect x="408.2319997307993" y="-26.89046199009306" width="18" height="26" fill="hsl(0 0% 96.18253423002666%)"/><rect x="332.2319997307993" y="19.10953800990694" width="18" height="26" fill="hsl(0 0% 82.07780554335463%)"/><rect x="370.2319997307993" y="19.10953800990694" width="18" height="26" fill="hsl(0 0% 94.23267710964785%)"/><rect x="332.2319997307993" y="65.10953800990694" width="18" height="26" fill="hsl(0 0% 94.95552504479676%)"/><rect x="370.2319997307993" y="65.10953800990694" width="18" height="26" fill="hsl(0 0% 96.95470296915374%)"/><rect x="408.2319997307993" y="65.10953800990694" width="18" height="26" fill="hsl(0 0% 78.9327417523287%)"/><rect x="332.2319997307993" y="111.10953800990694" width="18" height="26" fill="hsl(0 0% 96.74174488649786%)"/><rect x="370.2319997307993" y="111.10953800990694" width="18" height="26" fill="hsl(0 0% 91.50795639376527%)"/><rect x="408.2319997307993" y="111.10953800990694" width="18" height="26" fill="hsl(0 0% 83.8099853646988%)"/><rect x="332.2319997307993" y="157.10953800990694" width="18" height="26" fill="hsl(0 0% 80.57964880325815%)"/><rect x="370.2319997307993" y="157.10953800990694" width="18" height="26" fill="hsl(0 0% 96.03289826867771%)"/><rect x="408.2319997307993" y="157.10953800990694" width="18" height="26" fill="hsl(0 0% 86.63640575140548%)"/><rect x="332.2319997307993" y="203.10953800990694" width="18" height="26" fill="hsl(0 0% 83.0932930154229%)"/><rect x="408.2319997307993" y="203.10953800990694" width="18" height="26" fill="hsl(0 0% 81.28636142578273%)"/><rect x="332.2319997307993" y="249.10953800990694" width="18" height="26" fill="hsl(0 0% 80.0519694602359%)"/><rect x="370.2319997307993" y="249.10953800990694" width="18" height="26" fill="hsl(0 0% 82.22052987116413%)"/><rect x="408.2319997307993" y="249.10953800990694" width="18" height="26" fill="hsl(0 0% 84.2690273794667%)"/><rect x="370.2319997307993" y="295.10953800990694" width="18" height="26" fill="hsl(0 0% 92.93063807251427%)"/><rect x="408.2319997307993" y="295.10953800990694" width="18" height="26" fill="hsl(0 0% 85.26234913210494%)"/><rect x="332.2319997307993" y="341.10953800990694" width="18" height="26" fill="hsl(0 0% 97.41627664464352%)"/><rect x="370.2319997307993" y="341.10953800990694" width="18" height="26" fill="hsl(0 0% 97.84856422983509%)"/><rect x="408.2319997307993" y="341.10953800990694" width="18" height="26" fill="hsl(0 0% 81.11515958193465%)"/><rect x="332.2319997307993" y="387.10953800990694" width="18" height="26" fill="hsl(0 0% 96.58172385887323%)"/><rect x="408.2319997307993" y="387.10953800990694" width="18" height="26" fill="hsl(0 0% 94.06649041923997%)"/><rect x="332.2319997307993" y="433.10953800990694" width="18" height="26" fill="hsl(0 0% 79.7309236348285%)"/><rect x="370.2319997307993" y="433.10953800990694" width="18" height="26" fill="hsl(0 0% 82.7481651626286%)"/><rect x="332.2319997307993" y="479.10953800990694" width="18" height="26" fill="hsl(0 0% 85.75534405734173%)"/><rect x="451.8733067865825" y="-59.28324835341573" width="143.7540012010159" height="1592.9487719633378" fill="hsl(0 0% 56%)"/><rect x="543.8733067865825" y="-29.28324835341573" width="18" height="26" fill="hsl(0 0% 99.16538299348456%)"/><rect x="467.8733067865825" y="62.71675164658427" width="18" height="26" fill="hsl(0 0% 100.71581683480917%)"/><rect x="543.8733067865825" y="62.71675164658427" width="18" height="26" fill="hsl(0 0% 87.25773397565713%)"/><rect x="467.8733067865825" y="108.71675164658427" width="18" height="26" fill="hsl(0 0% 83.94951000388224%)"/><rect x="505.8733067865825" y="108.71675164658427" width="18" height="26" fill="hsl(0 0% 93.77462448588322%)"/><rect x="467.8733067865825" y="154.71675164658427" width="18" height="26" fill="hsl(0 0% 95.56599644132238%)"/><rect x="505.8733067865825" y="154.71675164658427" width="18" height="26" fill="hsl(0 0% 92.69565237671866%)"/><rect x="543.8733067865825" y="154.71675164658427" width="18" height="26" fill="hsl(0 0% 98.33104451435202%)"/><rect x="505.8733067865825" y="200.71675164658427" width="18" height="26" fill="hsl(0 0% 87.3795398764217%)"/><rect x="467.8733067865825" y="246.71675164658427" width="18" height="26" fill="hsl(0 0% 87.18208125521525%)"/><rect x="543.8733067865825" y="292.71675164658427" width="18" height="26" fill="hsl(0 0% 91.62212309363397%)"/><rect x="543.8733067865825" y="338.71675164658427" width="18" height="26" fill="hsl(0 0% 96.5701187511767%)"/><rect x="505.8733067865825" y="384.71675164658427" width="18" height="26" fill="hsl(0 0% 89.21552200625442%)"/><rect x="543.8733067865825" y="384.71675164658427" width="18" height="26" fill="hsl(0 0% 85.3816970216025%)"/><rect x="505.8733067865825" y="430.71675164658427" width="18" height="26" fill="hsl(0 0% 92.967198481768%)"/><rect x="543.8733067865825" y="430.71675164658427" width="18" height="26" fill="hsl(0 0% 91.96983675424468%)"/><rect x="467.8733067865825" y="476.71675164658427" width="18" height="26" fill="hsl(0 0% 89.6446167196355%)"/><rect x="505.8733067865825" y="476.71675164658427" width="18" height="26" fill="hsl(0 0% 81.38859841431892%)"/><rect x="543.8733067865825" y="476.71675164658427" width="18" height="26" fill="hsl(0 0% 94.84574060041724%)"/><rect x="603.670714806612" y="-226.5483332828378" width="130.61498585185734" height="1760.2138568927598" fill="hsl(0 0% 58%)"/><rect x="657.670714806612" y="-196.5483332828378" width="18" height="26" fill="hsl(0 0% 90.72123987214698%)"/><rect x="695.670714806612" y="-196.5483332828378" width="18" height="26" fill="hsl(0 0% 98.47344498125531%)"/><rect x="695.670714806612" y="-150.5483332828378" width="18" height="26" fill="hsl(0 0% 84.69934657481468%)"/><rect x="619.670714806612" y="-58.5483332828378" width="18" height="26" fill="hsl(0 0% 94.41039521964751%)"/><rect x="657.670714806612" y="-58.5483332828378" width="18" height="26" fill="hsl(0 0% 93.85833997039978%)"/><rect x="695.670714806612" y="-58.5483332828378" width="18" height="26" fill="hsl(0 0% 89.86533158964725%)"/><rect x="657.670714806612" y="-12.548333282837802" width="18" height="26" fill="hsl(0 0% 88.1103284420028%)"/><rect x="695.670714806612" y="-12.548333282837802" width="18" height="26" fill="hsl(0 0% 102.1265228666023%)"/><rect x="619.670714806612" y="33.4516667171622" width="18" height="26" fill="hsl(0 0% 92.24767825251803%)"/><rect x="695.670714806612" y="33.4516667171622" width="18" height="26" fill="hsl(0 0% 94.52888928145585%)"/><rect x="657.670714806612" y="79.4516667171622" width="18" height="26" fill="hsl(0 0% 97.16323877599241%)"/><rect x="619.670714806612" y="125.4516667171622" width="18" height="26" fill="hsl(0 0% 96.78051724926593%)"/><rect x="657.670714806612" y="125.4516667171622" width="18" height="26" fill="hsl(0 0% 84.33518766673988%)"/><rect x="619.670714806612" y="171.4516667171622" width="18" height="26" fill="hsl(0 0% 87.90418249969565%)"/><rect x="695.670714806612" y="171.4516667171622" width="18" height="26" fill="hsl(0 0% 94.13647586253308%)"/><rect x="619.670714806612" y="217.4516667171622" width="18" height="26" fill="hsl(0 0% 95.25152032089025%)"/><rect x="657.670714806612" y="217.4516667171622" width="18" height="26" fill="hsl(0 0% 96.27203269734608%)"/><rect x="695.670714806612" y="263.4516667171622" width="18" height="26" fill="hsl(0 0% 91.28563364608476%)"/><rect x="619.670714806612" y="309.4516667171622" width="18" height="26" fill="hsl(0 0% 90.30056944643174%)"/><rect x="695.670714806612" y="309.4516667171622" width="18" height="26" fill="hsl(0 0% 88.19402936342826%)"/><rect x="619.670714806612" y="355.4516667171622" width="18" height="26" fill="hsl(0 0% 100.74770815751874%)"/><rect x="619.670714806612" y="401.4516667171622" width="18" height="26" fill="hsl(0 0% 96.78295061820324%)"/><rect x="657.670714806612" y="401.4516667171622" width="18" height="26" fill="hsl(0 0% 90.83166435911863%)"/><rect x="619.670714806612" y="447.4516667171622" width="18" height="26" fill="hsl(0 0% 87.03534827941812%)"/><rect x="695.670714806612" y="447.4516667171622" width="18" height="26" fill="hsl(0 0% 83.17823728741064%)"/><rect x="619.670714806612" y="493.4516667171622" width="18" height="26" fill="hsl(0 0% 85.14240662853345%)"/><rect x="657.670714806612" y="493.4516667171622" width="18" height="26" fill="hsl(0 0% 88.85423844207742%)"/><rect x="695.670714806612" y="493.4516667171622" width="18" height="26" fill="hsl(0 0% 84.63118916639648%)"/><rect x="757.3801800968964" y="-363.88641416276175" width="155.38342539471734" height="1897.5519377726837" fill="hsl(0 0% 34%)"/><rect x="773.3801800968964" y="-333.88641416276175" width="18" height="26" fill="hsl(0 0% 71.8039079219121%)"/><rect x="811.3801800968964" y="-333.88641416276175" width="18" height="26" fill="hsl(0 0% 77.41519461870901%)"/><rect x="811.3801800968964" y="-287.88641416276175" width="18" height="26" fill="hsl(0 0% 69.53316790169718%)"/><rect x="849.3801800968964" y="-287.88641416276175" width="18" height="26" fill="hsl(0 0% 64.79071875931263%)"/><rect x="849.3801800968964" y="-241.88641416276175" width="18" height="26" fill="hsl(0 0% 76.24660249298746%)"/><rect x="811.3801800968964" y="-195.88641416276175" width="18" height="26" fill="hsl(0 0% 73.2480820483752%)"/><rect x="849.3801800968964" y="-195.88641416276175" width="18" height="26" fill="hsl(0 0% 63.38721401821226%)"/><rect x="773.3801800968964" y="-149.88641416276175" width="18" height="26" fill="hsl(0 0% 71.21080018776041%)"/><rect x="773.3801800968964" y="-103.88641416276175" width="18" height="26" fill="hsl(0 0% 63.039820453170606%)"/><rect x="811.3801800968964" y="-103.88641416276175" width="18" height="26" fill="hsl(0 0% 67.4246590213965%)"/><rect x="849.3801800968964" y="-103.88641416276175" width="18" height="26" fill="hsl(0 0% 73.80907176379537%)"/><rect x="773.3801800968964" y="-57.88641416276175" width="18" height="26" fill="hsl(0 0% 72.93696583525136%)"/><rect x="811.3801800968964" y="-57.88641416276175" width="18" height="26" fill="hsl(0 0% 73.61712198081293%)"/><rect x="849.3801800968964" y="-57.88641416276175" width="18" height="26" fill="hsl(0 0% 70.193503658843%)"/><rect x="773.3801800968964" y="-11.886414162761753" width="18" height="26" fill="hsl(0 0% 72.2140862351349%)"/><rect x="811.3801800968964" y="-11.886414162761753" width="18" height="26" fill="hsl(0 0% 78.57720413784367%)"/><rect x="849.3801800968964" y="-11.886414162761753" width="18" height="26" fill="hsl(0 0% 72.5612190112291%)"/><rect x="811.3801800968964" y="34.11358583723825" width="18" height="26" fill="hsl(0 0% 77.53988571024495%)"/><rect x="849.3801800968964" y="34.11358583723825" width="18" height="26" fill="hsl(0 0% 71.43298272249893%)"/><rect x="811.3801800968964" y="80.11358583723825" width="18" height="26" fill="hsl(0 0% 61.27063419403072%)"/><rect x="773.3801800968964" y="126.11358583723825" width="18" height="26" fill="hsl(0 0% 59.70024683172826%)"/><rect x="811.3801800968964" y="126.11358583723825" width="18" height="26" fill="hsl(0 0% 77.15390146251484%)"/><rect x="849.3801800968964" y="126.11358583723825" width="18" height="26" fill="hsl(0 0% 74.94534328018564%)"/><rect x="773.3801800968964" y="172.11358583723825" width="18" height="26" fill="hsl(0 0% 72.46091529049953%)"/><rect x="811.3801800968964" y="172.11358583723825" width="18" height="26" fill="hsl(0 0% 77.45176271090831%)"/><rect x="849.3801800968964" y="172.11358583723825" width="18" height="26" fill="hsl(0 0% 65.25274195626972%)"/><rect x="773.3801800968964" y="218.11358583723825" width="18" height="26" fill="hsl(0 0% 60.03003458167893%)"/><rect x="811.3801800968964" y="218.11358583723825" width="18" height="26" fill="hsl(0 0% 73.93836817095911%)"/><rect x="849.3801800968964" y="218.11358583723825" width="18" height="26" fill="hsl(0 0% 67.74535060894925%)"/><rect x="811.3801800968964" y="264.11358583723825" width="18" height="26" fill="hsl(0 0% 63.02209025994972%)"/><rect x="849.3801800968964" y="264.11358583723825" width="18" height="26" fill="hsl(0 0% 66.67977152377357%)"/><rect x="773.3801800968964" y="310.11358583723825" width="18" height="26" fill="hsl(0 0% 72.44104685515214%)"/><rect x="849.3801800968964" y="310.11358583723825" width="18" height="26" fill="hsl(0 0% 59.70904164608058%)"/><rect x="773.3801800968964" y="356.11358583723825" width="18" height="26" fill="hsl(0 0% 74.52798076324537%)"/><rect x="811.3801800968964" y="356.11358583723825" width="18" height="26" fill="hsl(0 0% 71.56494452830634%)"/><rect x="849.3801800968964" y="356.11358583723825" width="18" height="26" fill="hsl(0 0% 73.30452176104511%)"/><rect x="773.3801800968964" y="402.11358583723825" width="18" height="26" fill="hsl(0 0% 65.2771339278096%)"/><rect x="811.3801800968964" y="402.11358583723825" width="18" height="26" fill="hsl(0 0% 68.26436550415325%)"/><rect x="773.3801800968964" y="448.11358583723825" width="18" height="26" fill="hsl(0 0% 60.61294161417193%)"/><rect x="811.3801800968964" y="448.11358583723825" width="18" height="26" fill="hsl(0 0% 63.08567744497474%)"/><rect x="849.3801800968964" y="448.11358583723825" width="18" height="26" fill="hsl(0 0% 72.60292394347626%)"/><rect x="811.3801800968964" y="494.11358583723825" width="18" height="26" fill="hsl(0 0% 68.89518553479351%)"/><rect x="849.3801800968964" y="494.11358583723825" width="18" height="26" fill="hsl(0 0% 76.84199328992608%)"/><rect x="928.3354411732105" y="-169.07706542363258" width="279.5102043680429" height="1702.7425890335546" fill="hsl(0 0% 63%)"/><rect x="944.3354411732105" y="-139.07706542363258" width="18" height="26" fill="hsl(0 0% 107.87160978832823%)"/><rect x="1058.3354411732105" y="-139.07706542363258" width="18" height="26" fill="hsl(0 0% 103.26461008715658%)"/><rect x="1096.3354411732105" y="-139.07706542363258" width="18" height="26" fill="hsl(0 0% 103.25746660086209%)"/><rect x="1134.3354411732105" y="-139.07706542363258" width="18" height="26" fill="hsl(0 0% 105.18770059625976%)"/><rect x="1172.3354411732105" y="-139.07706542363258" width="18" height="26" fill="hsl(0 0% 93.66592628400117%)"/><rect x="944.3354411732105" y="-93.07706542363258" width="18" height="26" fill="hsl(0 0% 105.88887648744922%)"/><rect x="982.3354411732105" y="-93.07706542363258" width="18" height="26" fill="hsl(0 0% 88.12246370321255%)"/><rect x="1020.3354411732105" y="-93.07706542363258" width="18" height="26" fill="hsl(0 0% 93.05842551824563%)"/><rect x="1058.3354411732105" y="-93.07706542363258" width="18" height="26" fill="hsl(0 0% 95.81438961988985%)"/><rect x="1096.3354411732105" y="-93.07706542363258" width="18" height="26" fill="hsl(0 0% 101.66140088702618%)"/><rect x="1134.3354411732105" y="-93.07706542363258" width="18" height="26" fill="hsl(0 0% 105.25153895898328%)"/><rect x="982.3354411732105" y="-47.077065423632575" width="18" height="26" fill="hsl(0 0% 96.39050488937204%)"/><rect x="1020.3354411732105" y="-47.077065423632575" width="18" height="26" fill="hsl(0 0% 105.86108445276557%)"/><rect x="1058.3354411732105" y="-47.077065423632575" width="18" height="26" fill="hsl(0 0% 106.20498240096727%)"/><rect x="1096.3354411732105" y="-47.077065423632575" width="18" height="26" fill="hsl(0 0% 104.7538462098473%)"/><rect x="1172.3354411732105" y="-47.077065423632575" width="18" height="26" fill="hsl(0 0% 103.43948928613192%)"/><rect x="944.3354411732105" y="-1.0770654236325754" width="18" height="26" fill="hsl(0 0% 88.53294607462965%)"/><rect x="982.3354411732105" y="-1.0770654236325754" width="18" height="26" fill="hsl(0 0% 103.13458099920982%)"/><rect x="1058.3354411732105" y="-1.0770654236325754" width="18" height="26" fill="hsl(0 0% 91.19222103953%)"/><rect x="1096.3354411732105" y="-1.0770654236325754" width="18" height="26" fill="hsl(0 0% 101.00427354546463%)"/><rect x="1172.3354411732105" y="-1.0770654236325754" width="18" height="26" fill="hsl(0 0% 105.86014770989313%)"/><rect x="944.3354411732105" y="44.922934576367425" width="18" height="26" fill="hsl(0 0% 99.52884208202774%)"/><rect x="1020.3354411732105" y="44.922934576367425" width="18" height="26" fill="hsl(0 0% 94.0077810874245%)"/><rect x="1058.3354411732105" y="44.922934576367425" width="18" height="26" fill="hsl(0 0% 106.6077275772615%)"/><rect x="1172.3354411732105" y="44.922934576367425" width="18" height="26" fill="hsl(0 0% 95.01541929832446%)"/><rect x="944.3354411732105" y="90.92293457636742" width="18" height="26" fill="hsl(0 0% 101.13360812754073%)"/><rect x="982.3354411732105" y="90.92293457636742" width="18" height="26" fill="hsl(0 0% 94.09549041189975%)"/><rect x="1058.3354411732105" y="90.92293457636742" width="18" height="26" fill="hsl(0 0% 89.83992386881259%)"/><rect x="1134.3354411732105" y="90.92293457636742" width="18" height="26" fill="hsl(0 0% 88.04318377936407%)"/><rect x="944.3354411732105" y="136.92293457636742" width="18" height="26" fill="hsl(0 0% 90.73752681107145%)"/><rect x="982.3354411732105" y="136.92293457636742" width="18" height="26" fill="hsl(0 0% 95.60158413443789%)"/><rect x="1020.3354411732105" y="136.92293457636742" width="18" height="26" fill="hsl(0 0% 99.16979004404033%)"/><rect x="1058.3354411732105" y="136.92293457636742" width="18" height="26" fill="hsl(0 0% 91.96801075151564%)"/><rect x="1096.3354411732105" y="136.92293457636742" width="18" height="26" fill="hsl(0 0% 93.06905525227499%)"/><rect x="1134.3354411732105" y="136.92293457636742" width="18" height="26" fill="hsl(0 0% 92.58113554147126%)"/><rect x="1172.3354411732105" y="136.92293457636742" width="18" height="26" fill="hsl(0 0% 90.77984121012494%)"/><rect x="982.3354411732105" y="182.92293457636742" width="18" height="26" fill="hsl(0 0% 90.53764262541087%)"/><rect x="1020.3354411732105" y="182.92293457636742" width="18" height="26" fill="hsl(0 0% 100.4859505484281%)"/><rect x="1058.3354411732105" y="182.92293457636742" width="18" height="26" fill="hsl(0 0% 98.16891064595846%)"/><rect x="1096.3354411732105" y="182.92293457636742" width="18" height="26" fill="hsl(0 0% 94.77586689906934%)"/><rect x="1172.3354411732105" y="182.92293457636742" width="18" height="26" fill="hsl(0 0% 106.41314276606457%)"/><rect x="944.3354411732105" y="228.92293457636742" width="18" height="26" fill="hsl(0 0% 95.71663676375367%)"/><rect x="982.3354411732105" y="228.92293457636742" width="18" height="26" fill="hsl(0 0% 99.2838709686342%)"/><rect x="1020.3354411732105" y="228.92293457636742" width="18" height="26" fill="hsl(0 0% 89.54881756824852%)"/><rect x="1058.3354411732105" y="228.92293457636742" width="18" height="26" fill="hsl(0 0% 96.24657476891139%)"/><rect x="1172.3354411732105" y="228.92293457636742" width="18" height="26" fill="hsl(0 0% 106.86208271554769%)"/><rect x="944.3354411732105" y="274.9229345763674" width="18" height="26" fill="hsl(0 0% 99.73292767802855%)"/><rect x="982.3354411732105" y="274.9229345763674" width="18" height="26" fill="hsl(0 0% 95.35010750002698%)"/><rect x="1020.3354411732105" y="274.9229345763674" width="18" height="26" fill="hsl(0 0% 94.24688978597842%)"/><rect x="1058.3354411732105" y="274.9229345763674" width="18" height="26" fill="hsl(0 0% 95.76981262851963%)"/><rect x="1096.3354411732105" y="274.9229345763674" width="18" height="26" fill="hsl(0 0% 104.92442813744975%)"/><rect x="1134.3354411732105" y="274.9229345763674" width="18" height="26" fill="hsl(0 0% 100.30872351318072%)"/><rect x="1172.3354411732105" y="274.9229345763674" width="18" height="26" fill="hsl(0 0% 107.25788061658753%)"/><rect x="944.3354411732105" y="320.9229345763674" width="18" height="26" fill="hsl(0 0% 90.38283638022041%)"/><rect x="982.3354411732105" y="320.9229345763674" width="18" height="26" fill="hsl(0 0% 107.82901836737479%)"/><rect x="1172.3354411732105" y="320.9229345763674" width="18" height="26" fill="hsl(0 0% 97.03466334055861%)"/><rect x="982.3354411732105" y="366.9229345763674" width="18" height="26" fill="hsl(0 0% 97.08784722401194%)"/><rect x="1020.3354411732105" y="366.9229345763674" width="18" height="26" fill="hsl(0 0% 95.47673325588775%)"/><rect x="1096.3354411732105" y="366.9229345763674" width="18" height="26" fill="hsl(0 0% 91.46777796906781%)"/><rect x="944.3354411732105" y="412.9229345763674" width="18" height="26" fill="hsl(0 0% 105.98546247090468%)"/><rect x="1020.3354411732105" y="412.9229345763674" width="18" height="26" fill="hsl(0 0% 99.35222910500701%)"/><rect x="1058.3354411732105" y="412.9229345763674" width="18" height="26" fill="hsl(0 0% 91.14190232341267%)"/><rect x="1172.3354411732105" y="412.9229345763674" width="18" height="26" fill="hsl(0 0% 95.50076778582333%)"/><rect x="982.3354411732105" y="458.9229345763674" width="18" height="26" fill="hsl(0 0% 103.22227508724774%)"/><rect x="1134.3354411732105" y="458.9229345763674" width="18" height="26" fill="hsl(0 0% 90.23665786079907%)"/><rect x="1172.3354411732105" y="458.9229345763674" width="18" height="26" fill="hsl(0 0% 94.15702395614097%)"/><rect x="1209.4980918334322" y="-82.65633213457477" width="256.20877277395164" height="1616.3218557444968" fill="hsl(0 0% 64%)"/><rect x="1225.4980918334322" y="-52.65633213457477" width="18" height="26" fill="hsl(0 0% 95.1515224660521%)"/><rect x="1263.4980918334322" y="-52.65633213457477" width="18" height="26" fill="hsl(0 0% 89.32716133647%)"/><rect x="1301.4980918334322" y="-52.65633213457477" width="18" height="26" fill="hsl(0 0% 108.98253738506816%)"/><rect x="1225.4980918334322" y="-6.656332134574768" width="18" height="26" fill="hsl(0 0% 95.31532221395304%)"/><rect x="1301.4980918334322" y="-6.656332134574768" width="18" height="26" fill="hsl(0 0% 100.48943056887455%)"/><rect x="1415.4980918334322" y="-6.656332134574768" width="18" height="26" fill="hsl(0 0% 101.8443186976222%)"/><rect x="1225.4980918334322" y="39.34366786542523" width="18" height="26" fill="hsl(0 0% 91.34618503709612%)"/><rect x="1263.4980918334322" y="39.34366786542523" width="18" height="26" fill="hsl(0 0% 91.55379993587444%)"/><rect x="1339.4980918334322" y="39.34366786542523" width="18" height="26" fill="hsl(0 0% 101.37404892797305%)"/><rect x="1377.4980918334322" y="39.34366786542523" width="18" height="26" fill="hsl(0 0% 101.06736961010256%)"/><rect x="1415.4980918334322" y="39.34366786542523" width="18" height="26" fill="hsl(0 0% 104.38875176356582%)"/><rect x="1225.4980918334322" y="85.34366786542523" width="18" height="26" fill="hsl(0 0% 95.2124429672083%)"/><rect x="1263.4980918334322" y="85.34366786542523" width="18" height="26" fill="hsl(0 0% 103.06046581177993%)"/><rect x="1301.4980918334322" y="85.34366786542523" width="18" height="26" fill="hsl(0 0% 90.2385255383507%)"/><rect x="1339.4980918334322" y="85.34366786542523" width="18" height="26" fill="hsl(0 0% 98.8384730843075%)"/><rect x="1377.4980918334322" y="85.34366786542523" width="18" height="26" fill="hsl(0 0% 103.26955792786067%)"/><rect x="1415.4980918334322" y="85.34366786542523" width="18" height="26" fill="hsl(0 0% 97.79236751645448%)"/><rect x="1225.4980918334322" y="131.34366786542523" width="18" height="26" fill="hsl(0 0% 92.50999093777965%)"/><rect x="1263.4980918334322" y="131.34366786542523" width="18" height="26" fill="hsl(0 0% 93.13705107948606%)"/><rect x="1301.4980918334322" y="131.34366786542523" width="18" height="26" fill="hsl(0 0% 102.80354214171112%)"/><rect x="1339.4980918334322" y="131.34366786542523" width="18" height="26" fill="hsl(0 0% 92.56184364462356%)"/><rect x="1415.4980918334322" y="131.34366786542523" width="18" height="26" fill="hsl(0 0% 98.96302490586555%)"/><rect x="1225.4980918334322" y="177.34366786542523" width="18" height="26" fill="hsl(0 0% 90.07757503216973%)"/><rect x="1263.4980918334322" y="177.34366786542523" width="18" height="26" fill="hsl(0 0% 104.52832826763779%)"/><rect x="1339.4980918334322" y="177.34366786542523" width="18" height="26" fill="hsl(0 0% 106.05042851020136%)"/><rect x="1415.4980918334322" y="177.34366786542523" width="18" height="26" fill="hsl(0 0% 95.75952312851302%)"/><rect x="1225.4980918334322" y="223.34366786542523" width="18" height="26" fill="hsl(0 0% 107.84797565585373%)"/><rect x="1263.4980918334322" y="223.34366786542523" width="18" height="26" fill="hsl(0 0% 105.53322266253326%)"/><rect x="1301.4980918334322" y="223.34366786542523" width="18" height="26" fill="hsl(0 0% 97.37152881937638%)"/><rect x="1377.4980918334322" y="223.34366786542523" width="18" height="26" fill="hsl(0 0% 98.8826922708576%)"/><rect x="1415.4980918334322" y="223.34366786542523" width="18" height="26" fill="hsl(0 0% 89.0008772313599%)"/><rect x="1225.4980918334322" y="269.34366786542523" width="18" height="26" fill="hsl(0 0% 105.14681562229377%)"/><rect x="1263.4980918334322" y="269.34366786542523" width="18" height="26" fill="hsl(0 0% 92.46452267070511%)"/><rect x="1301.4980918334322" y="269.34366786542523" width="18" height="26" fill="hsl(0 0% 93.073572309722%)"/><rect x="1377.4980918334322" y="269.34366786542523" width="18" height="26" fill="hsl(0 0% 94.74117124348003%)"/><rect x="1415.4980918334322" y="269.34366786542523" width="18" height="26" fill="hsl(0 0% 105.55365849684628%)"/><rect x="1225.4980918334322" y="315.34366786542523" width="18" height="26" fill="hsl(0 0% 94.7576203186799%)"/><rect x="1263.4980918334322" y="315.34366786542523" width="18" height="26" fill="hsl(0 0% 102.16656227836691%)"/><rect x="1301.4980918334322" y="315.34366786542523" width="18" height="26" fill="hsl(0 0% 107.05570007211328%)"/><rect x="1377.4980918334322" y="315.34366786542523" width="18" height="26" fill="hsl(0 0% 89.08072696629945%)"/><rect x="1415.4980918334322" y="315.34366786542523" width="18" height="26" fill="hsl(0 0% 98.9064531968471%)"/><rect x="1225.4980918334322" y="361.34366786542523" width="18" height="26" fill="hsl(0 0% 102.48622806066938%)"/><rect x="1301.4980918334322" y="361.34366786542523" width="18" height="26" fill="hsl(0 0% 96.13980472047804%)"/><rect x="1339.4980918334322" y="361.34366786542523" width="18" height="26" fill="hsl(0 0% 105.22841015282478%)"/><rect x="1377.4980918334322" y="361.34366786542523" width="18" height="26" fill="hsl(0 0% 107.79330963771478%)"/><rect x="1415.4980918334322" y="361.34366786542523" width="18" height="26" fill="hsl(0 0% 108.44758431028927%)"/><rect x="1225.4980918334322" y="407.34366786542523" width="18" height="26" fill="hsl(0 0% 89.49745728284934%)"/><rect x="1301.4980918334322" y="407.34366786542523" width="18" height="26" fill="hsl(0 0% 105.32985472508234%)"/><rect x="1339.4980918334322" y="407.34366786542523" width="18" height="26" fill="hsl(0 0% 108.60145976375856%)"/><rect x="1415.4980918334322" y="407.34366786542523" width="18" height="26" fill="hsl(0 0% 105.5693970474272%)"/><rect x="1263.4980918334322" y="453.34366786542523" width="18" height="26" fill="hsl(0 0% 97.57373400059237%)"/><rect x="1301.4980918334322" y="453.34366786542523" width="18" height="26" fill="hsl(0 0% 95.6770954833725%)"/><rect x="1377.4980918334322" y="453.34366786542523" width="18" height="26" fill="hsl(0 0% 102.52235426824649%)"/><rect x="1415.4980918334322" y="453.34366786542523" width="18" height="26" fill="hsl(0 0% 97.98914155037568%)"/><rect x="1263.4980918334322" y="499.34366786542523" width="18" height="26" fill="hsl(0 0% 101.92443070231212%)"/><rect x="1415.4980918334322" y="499.34366786542523" width="18" height="26" fill="hsl(0 0% 90.6814666528634%)"/><rect x="1466.321916620397" y="88.10976287727698" width="215.98067321161773" height="1445.555760732645" fill="hsl(0 0% 60%)"/><rect x="1482.321916620397" y="118.10976287727698" width="18" height="26" fill="hsl(0 0% 98.66848674307973%)"/><rect x="1558.321916620397" y="118.10976287727698" width="18" height="26" fill="hsl(0 0% 96.45784812581626%)"/><rect x="1596.321916620397" y="118.10976287727698" width="18" height="26" fill="hsl(0 0% 87.34412915182492%)"/><rect x="1634.321916620397" y="118.10976287727698" width="18" height="26" fill="hsl(0 0% 90.8499036197783%)"/><rect x="1482.321916620397" y="164.10976287727698" width="18" height="26" fill="hsl(0 0% 86.62287595757417%)"/><rect x="1520.321916620397" y="164.10976287727698" width="18" height="26" fill="hsl(0 0% 95.21187765067997%)"/><rect x="1558.321916620397" y="164.10976287727698" width="18" height="26" fill="hsl(0 0% 87.13335770281654%)"/><rect x="1596.321916620397" y="164.10976287727698" width="18" height="26" fill="hsl(0 0% 93.3091694155285%)"/><rect x="1634.321916620397" y="164.10976287727698" width="18" height="26" fill="hsl(0 0% 104.63459729199977%)"/><rect x="1482.321916620397" y="210.10976287727698" width="18" height="26" fill="hsl(0 0% 104.07236205370741%)"/><rect x="1520.321916620397" y="210.10976287727698" width="18" height="26" fill="hsl(0 0% 85.13915218419356%)"/><rect x="1558.321916620397" y="210.10976287727698" width="18" height="26" fill="hsl(0 0% 92.87896946439471%)"/><rect x="1482.321916620397" y="256.109762877277" width="18" height="26" fill="hsl(0 0% 90.53123170767502%)"/><rect x="1558.321916620397" y="256.109762877277" width="18" height="26" fill="hsl(0 0% 99.23879353992585%)"/><rect x="1596.321916620397" y="256.109762877277" width="18" height="26" fill="hsl(0 0% 95.65014533263172%)"/><rect x="1634.321916620397" y="256.109762877277" width="18" height="26" fill="hsl(0 0% 99.72133369870546%)"/><rect x="1520.321916620397" y="348.109762877277" width="18" height="26" fill="hsl(0 0% 102.98874203953368%)"/><rect x="1558.321916620397" y="348.109762877277" width="18" height="26" fill="hsl(0 0% 91.81404340398221%)"/><rect x="1634.321916620397" y="348.109762877277" width="18" height="26" fill="hsl(0 0% 91.89689349704277%)"/><rect x="1482.321916620397" y="394.109762877277" width="18" height="26" fill="hsl(0 0% 92.90363834607584%)"/><rect x="1520.321916620397" y="394.109762877277" width="18" height="26" fill="hsl(0 0% 94.81372199478267%)"/><rect x="1558.321916620397" y="394.109762877277" width="18" height="26" fill="hsl(0 0% 89.09301099558036%)"/><rect x="1596.321916620397" y="394.109762877277" width="18" height="26" fill="hsl(0 0% 85.136298462812%)"/><rect x="1634.321916620397" y="394.109762877277" width="18" height="26" fill="hsl(0 0% 87.2211359358491%)"/><rect x="1482.321916620397" y="440.109762877277" width="18" height="26" fill="hsl(0 0% 91.54182474433529%)"/><rect x="1520.321916620397" y="440.109762877277" width="18" height="26" fill="hsl(0 0% 98.57047354503091%)"/><rect x="1558.321916620397" y="440.109762877277" width="18" height="26" fill="hsl(0 0% 98.68051936555678%)"/><rect x="1596.321916620397" y="440.109762877277" width="18" height="26" fill="hsl(0 0% 99.23497344098752%)"/><rect x="1634.321916620397" y="440.109762877277" width="18" height="26" fill="hsl(0 0% 92.25133405404694%)"/><rect x="1482.321916620397" y="486.109762877277" width="18" height="26" fill="hsl(0 0% 97.49908649013335%)"/><rect x="1520.321916620397" y="486.109762877277" width="18" height="26" fill="hsl(0 0% 93.57295461398222%)"/><rect x="1596.321916620397" y="486.109762877277" width="18" height="26" fill="hsl(0 0% 95.20392477056194%)"/><rect x="1634.321916620397" y="486.109762877277" width="18" height="26" fill="hsl(0 0% 95.34175277237863%)"/><polygon points="560,1000 768,533.665523609922 832,533.665523609922 1040,1000" fill="hsl(0 0% 62%)"/>
<rect width="1600" height="1000" filter="url(#grain)"/>
<text x="60" y="940" font-family="Helvetica, Arial, sans-serif" font-size="64" font-weight="700" fill="#fff" opacity=".85">PHOTO 07</text>
<text x="60" y="980" font-family="Helvetica, Arial, sans-serif" font-size="26" fill="#fff" opacity=".6">placeholder — replace public/photos/photo-07.svg</text>
</svg>